<?xml version="1.0" standalone="no"?>
<!DOCTYPE svg PUBLIC "-//W3C//DTD SVG 20010904//EN"
 "http://www.w3.org/TR/2001/REC-SVG-20010904/DTD/svg10.dtd">
<svg version="1.0" xmlns="http://www.w3.org/2000/svg"
 width="800.000000pt" height="600.000000pt" viewBox="0 0 800.000000 600.000000"
 preserveAspectRatio="xMidYMid meet">

<g transform="translate(0.000000,600.000000) scale(0.100000,-0.100000)"
fill="#000000" stroke="none">
<path d="M3215 4116 c-17 -7 -43 -28 -58 -45 -94 -113 -23 -271 123 -271 93 0
162 68 162 158 0 77 -33 127 -105 157 -44 18 -82 19 -122 1z"/>
<path d="M4664 4111 c-162 -74 -112 -311 66 -311 145 0 217 159 123 271 -50
59 -117 73 -189 40z"/>
<path d="M2772 3653 c-70 -34 -80 -127 -21 -177 27 -23 199 -84 319 -114 l35
-8 6 -570 c5 -544 6 -573 28 -654 66 -254 235 -464 466 -580 146 -74 229 -93
400 -93 171 0 254 19 400 93 231 116 400 326 466 580 22 81 23 110 28 654 l6
570 35 8 c120 30 292 91 319 114 60 50 47 145 -24 179 l-38 17 -146 -46 c-712
-225 -1437 -222 -2120 9 -58 19 -110 35 -115 35 -6 0 -26 -8 -44 -17z m718
-378 c335 -50 814 -44 1125 14 27 5 54 7 59 4 5 -4 7 -213 3 -517 -5 -467 -7
-517 -25 -586 -11 -41 -29 -96 -41 -122 l-20 -48 -526 0 c-322 0 -525 -4 -525
-9 0 -6 22 -38 48 -73 93 -121 228 -207 388 -248 l79 -20 -87 5 c-290 16 -530
212 -614 500 -15 53 -18 123 -21 594 l-4 534 33 -7 c18 -4 76 -13 128 -21z"/>
</g>
</svg>
