<svg width="637" height="391" viewBox="0 0 637 391" fill="none" xmlns="http://www.w3.org/2000/svg">
<path d="M120.481 249.759H103.231C102.625 249.759 102.043 250 101.614 250.429C101.185 250.859 100.944 251.441 100.944 252.048V259.628C100.944 260.235 101.185 260.817 101.614 261.247C102.043 261.676 102.625 261.917 103.231 261.917H106.09V273.274H117.622V261.917H120.481C121.088 261.917 121.669 261.676 122.098 261.247C122.527 260.817 122.768 260.235 122.768 259.628V252.048C122.768 251.441 122.527 250.859 122.098 250.429C121.669 250 121.088 249.759 120.481 249.759Z" fill="#FFB830"/>
<path d="M137.758 319.127C127.194 303.652 121.794 285.227 122.33 266.491C122.34 266.059 122.2 265.636 121.933 265.296C121.667 264.955 121.292 264.717 120.87 264.623V261.347H102.652V264.577H102.401C102.144 264.577 101.89 264.631 101.655 264.734C101.419 264.837 101.208 264.987 101.033 265.176C100.858 265.365 100.724 265.587 100.639 265.83C100.554 266.073 100.52 266.33 100.539 266.587C101.975 286.615 97.1282 304.576 86.0001 320.47C85.3597 321.384 85.0326 322.48 85.0677 323.596L87.0598 385.282C87.1076 386.657 87.6845 387.962 88.6699 388.922C89.6553 389.882 90.9732 390.425 92.3484 390.435H133.555C134.946 390.424 136.277 389.87 137.266 388.89C138.254 387.91 138.821 386.583 138.847 385.191L139.614 325.299C139.637 323.1 138.99 320.947 137.758 319.127Z" fill="#3F3D56"/>
<path opacity="0.2" d="M116.885 252.229C116.885 253.539 116.365 254.795 115.44 255.721C114.515 256.648 113.26 257.168 111.951 257.168C110.642 257.168 109.387 256.648 108.462 255.721C107.537 254.795 107.017 253.539 107.017 252.229" fill="black"/>
<path d="M131.235 339.617H126.246C125.769 336.523 124.202 333.701 121.828 331.663C119.454 329.624 116.43 328.504 113.302 328.504C110.174 328.504 107.15 329.624 104.776 331.663C102.402 333.701 100.835 336.523 100.359 339.617H95.3684C94.8375 339.617 94.3129 339.732 93.8305 339.954C93.3481 340.176 92.9193 340.5 92.5736 340.903C92.2279 341.307 91.9735 341.78 91.8277 342.291C91.6819 342.802 91.6482 343.339 91.7289 343.864L97.1489 379.132H128.271L134.855 343.983C134.954 343.45 134.936 342.903 134.8 342.378C134.664 341.854 134.415 341.366 134.069 340.949C133.723 340.532 133.29 340.197 132.801 339.967C132.311 339.737 131.776 339.617 131.235 339.617Z" fill="#FFB830"/>
<path d="M550.552 282.929L549.355 330.819L547.873 390.205H497.418L495.681 320.627L494.739 282.929H550.552Z" fill="#E6E6E6"/>
<path d="M525.994 257.451H518.85V352.212H525.994V257.451Z" fill="#FFB830"/>
<path d="M546.98 319.014L545.628 387.081H499.639L498.056 307.333C502.2 306.168 506.538 305.87 510.802 306.457C515.065 307.044 519.162 308.504 522.837 310.745C530.521 315.295 539.153 317.743 546.98 319.014Z" fill="#3F3D56"/>
<path d="M511.025 326.677H504.469V333.239H511.025V326.677Z" fill="#E6E6E6"/>
<path d="M515.49 313.267H508.934V319.829H515.49V313.267Z" fill="#E6E6E6"/>
<path d="M529.566 322.55L524.301 318.641L520.396 323.912L525.661 327.821L529.566 322.55Z" fill="#E6E6E6"/>
<path d="M541.41 334.178L536.145 330.269L532.24 335.54L537.505 339.449L541.41 334.178Z" fill="#E6E6E6"/>
<path d="M521.317 340.883L516.052 336.973L512.147 342.244L517.412 346.154L521.317 340.883Z" fill="#E6E6E6"/>
<path d="M536.71 310.642C537.45 310.642 538.05 310.042 538.05 309.301C538.05 308.561 537.45 307.96 536.71 307.96C535.97 307.96 535.371 308.561 535.371 309.301C535.371 310.042 535.97 310.642 536.71 310.642Z" fill="#3F3D56"/>
<path d="M509.473 301.702C510.213 301.702 510.813 301.102 510.813 300.361C510.813 299.621 510.213 299.02 509.473 299.02C508.734 299.02 508.134 299.621 508.134 300.361C508.134 301.102 508.734 301.702 509.473 301.702Z" fill="#3F3D56"/>
<path d="M532.245 292.316C532.985 292.316 533.585 291.715 533.585 290.975C533.585 290.234 532.985 289.634 532.245 289.634C531.505 289.634 530.906 290.234 530.906 290.975C530.906 291.715 531.505 292.316 532.245 292.316Z" fill="#3F3D56"/>
<path d="M317.808 389.796C398.851 389.796 464.549 324.028 464.549 242.898C464.549 161.769 398.851 96 317.808 96C236.766 96 171.068 161.769 171.068 242.898C171.068 324.028 236.766 389.796 317.808 389.796Z" fill="#FFB830"/>
<path opacity="0.2" d="M317.808 350.12C293.029 350.119 269.016 341.518 249.862 325.781C230.707 310.044 217.596 288.146 212.761 263.816C207.927 239.487 211.67 214.232 223.351 192.355C235.032 170.478 253.929 153.332 276.822 143.84C299.715 134.347 325.188 133.094 348.9 140.295C372.613 147.496 393.098 162.705 406.864 183.33C420.631 203.956 426.828 228.722 424.399 253.408C421.97 278.095 411.066 301.175 393.544 318.715C383.622 328.703 371.819 336.621 358.819 342.012C345.818 347.402 331.879 350.158 317.808 350.12ZM317.808 142.289C262.392 142.289 217.308 187.422 217.308 242.898C217.308 298.374 262.392 343.507 317.808 343.507C373.224 343.507 418.309 298.374 418.309 242.898C418.309 187.422 373.224 142.289 317.808 142.289Z" fill="black"/>
<path d="M317.808 346.813C375.137 346.813 421.612 300.289 421.612 242.898C421.612 185.507 375.137 138.983 317.808 138.983C260.479 138.983 214.005 185.507 214.005 242.898C214.005 300.289 260.479 346.813 317.808 346.813Z" fill="#3F3D56"/>
<path d="M240.612 201.347C239.825 199.803 239.349 198.12 239.212 196.392C239.076 194.664 239.28 192.927 239.815 191.278C240.349 189.63 241.203 188.103 242.327 186.785C243.452 185.467 244.824 184.384 246.367 183.598C247.91 182.811 249.592 182.337 251.318 182.202C253.044 182.067 254.779 182.273 256.425 182.81C258.072 183.347 259.596 184.203 260.911 185.33C262.226 186.457 263.307 187.832 264.091 189.378L293.418 247.029C294.205 248.572 294.681 250.256 294.818 251.984C294.954 253.711 294.75 255.449 294.215 257.097C293.681 258.746 292.827 260.273 291.703 261.591C290.579 262.908 289.206 263.992 287.663 264.778C286.12 265.564 284.438 266.039 282.712 266.174C280.986 266.309 279.251 266.102 277.605 265.566C275.958 265.029 274.434 264.172 273.119 263.046C271.804 261.919 270.723 260.543 269.939 258.998L240.612 201.347Z" fill="#FF6584"/>
<path opacity="0.2" d="M243.883 207.777L242.53 205.116C249.285 199.862 257.217 195.998 266.008 193.147L267.362 195.808C257.847 197.791 249.752 201.462 243.883 207.777Z" fill="black"/>
<path opacity="0.2" d="M250.2 220.194L248.846 217.534C255.601 212.279 263.534 208.415 272.325 205.564L273.679 208.225C264.164 210.209 256.069 213.879 250.2 220.194Z" fill="black"/>
<path opacity="0.2" d="M256.516 232.612L255.163 229.951C261.918 224.696 269.85 220.832 278.642 217.981L279.995 220.642C270.48 222.626 262.386 226.296 256.516 232.612Z" fill="black"/>
<path opacity="0.2" d="M262.833 245.029L261.479 242.368C268.235 237.114 276.167 233.249 284.958 230.399L286.312 233.059C276.797 235.043 268.702 238.714 262.833 245.029Z" fill="black"/>
<path opacity="0.2" d="M269.15 257.446L267.796 254.785C274.551 249.531 282.484 245.666 291.275 242.816L292.628 245.477C283.114 247.46 275.019 251.131 269.15 257.446Z" fill="black"/>
<path d="M218.61 222.929C217.823 221.386 217.347 219.702 217.211 217.975C217.074 216.247 217.279 214.51 217.813 212.861C218.348 211.213 219.202 209.686 220.326 208.369C221.45 207.051 222.823 205.968 224.365 205.182C225.908 204.395 227.59 203.921 229.316 203.786C231.042 203.65 232.777 203.857 234.423 204.394C236.069 204.93 237.594 205.787 238.909 206.913C240.224 208.04 241.305 209.415 242.089 210.96L271.416 268.611C272.997 271.728 273.278 275.345 272.196 278.669C271.115 281.992 268.76 284.75 265.648 286.336C262.537 287.922 258.924 288.207 255.603 287.128C252.282 286.049 249.525 283.694 247.937 280.581L218.61 222.929Z" fill="#FF6584"/>
<path opacity="0.2" d="M221.881 229.36L220.527 226.699C227.283 221.444 235.215 217.58 244.006 214.73L245.36 217.39C235.845 219.374 227.75 223.045 221.881 229.36Z" fill="black"/>
<path opacity="0.2" d="M228.198 241.777L226.844 239.116C233.599 233.862 241.532 229.997 250.323 227.147L251.676 229.808C242.162 231.791 234.067 235.462 228.198 241.777Z" fill="black"/>
<path opacity="0.2" d="M234.514 254.194L233.161 251.533C239.916 246.279 247.848 242.415 256.639 239.564L257.993 242.225C248.478 244.208 240.384 247.879 234.514 254.194Z" fill="black"/>
<path opacity="0.2" d="M240.831 266.611L239.477 263.951C246.233 258.696 254.165 254.832 262.956 251.981L264.31 254.642C254.795 256.626 246.7 260.296 240.831 266.611Z" fill="black"/>
<path opacity="0.2" d="M247.148 279.029L245.794 276.368C252.549 271.113 260.482 267.249 269.273 264.398L270.626 267.059C261.112 269.043 253.017 272.713 247.148 279.029Z" fill="black"/>
<path d="M387.168 246.205L387.261 246.205C390.419 246.231 393.513 245.304 396.137 243.544C398.762 241.784 400.796 239.273 401.973 236.339C404.395 230.21 405.616 223.672 405.569 217.081C405.404 189.184 382.733 166.297 354.868 165.912C343.001 165.745 331.441 169.692 322.149 177.083C312.857 184.474 306.404 194.854 303.883 206.464C301.363 218.074 302.93 230.199 308.32 240.785C313.709 251.37 322.59 259.763 333.455 264.543C336.327 265.816 339.515 266.19 342.603 265.617C345.691 265.044 348.533 263.55 350.758 261.331C355.529 256.529 361.203 252.72 367.452 250.124C373.701 247.528 380.402 246.196 387.168 246.205Z" fill="#E6E6E6"/>
<path d="M360.745 230.617C370.126 230.617 377.731 223.004 377.731 213.613C377.731 204.222 370.126 196.609 360.745 196.609C351.364 196.609 343.759 204.222 343.759 213.613C343.759 223.004 351.364 230.617 360.745 230.617Z" fill="#F9A825"/>
<path d="M323.829 211.701C324.934 211.701 325.83 210.804 325.83 209.698C325.83 208.591 324.934 207.694 323.829 207.694C322.723 207.694 321.827 208.591 321.827 209.698C321.827 210.804 322.723 211.701 323.829 211.701Z" fill="#3F3D56"/>
<path d="M257.772 213.59C258.877 213.59 259.773 212.693 259.773 211.587C259.773 210.481 258.877 209.584 257.772 209.584C256.667 209.584 255.771 210.481 255.771 211.587C255.771 212.693 256.667 213.59 257.772 213.59Z" fill="#3F3D56"/>
<path d="M334.493 190.941C335.598 190.941 336.494 190.044 336.494 188.937C336.494 187.831 335.598 186.934 334.493 186.934C333.388 186.934 332.492 187.831 332.492 188.937C332.492 190.044 333.388 190.941 334.493 190.941Z" fill="#3F3D56"/>
<path d="M334.436 248.68C335.541 248.68 336.437 247.783 336.437 246.677C336.437 245.571 335.541 244.674 334.436 244.674C333.331 244.674 332.435 245.571 332.435 246.677C332.435 247.783 333.331 248.68 334.436 248.68Z" fill="#3F3D56"/>
<path d="M374.07 186.803C375.175 186.803 376.071 185.906 376.071 184.8C376.071 183.694 375.175 182.797 374.07 182.797C372.965 182.797 372.069 183.694 372.069 184.8C372.069 185.906 372.965 186.803 374.07 186.803Z" fill="#3F3D56"/>
<path d="M244.788 241.595C245.893 241.595 246.789 240.698 246.789 239.592C246.789 238.485 245.893 237.589 244.788 237.589C243.683 237.589 242.787 238.485 242.787 239.592C242.787 240.698 243.683 241.595 244.788 241.595Z" fill="#3F3D56"/>
<path d="M259.415 270.408C260.52 270.408 261.416 269.511 261.416 268.405C261.416 267.298 260.52 266.401 259.415 266.401C258.31 266.401 257.414 267.298 257.414 268.405C257.414 269.511 258.31 270.408 259.415 270.408Z" fill="#3F3D56"/>
<path d="M351.309 279.741C355.478 279.741 358.858 276.357 358.858 272.183C358.858 268.009 355.478 264.626 351.309 264.626C347.139 264.626 343.759 268.009 343.759 272.183C343.759 276.357 347.139 279.741 351.309 279.741Z" fill="#FF6584"/>
<path opacity="0.2" d="M356.971 272.656C356.971 274.159 356.374 275.601 355.312 276.664C354.25 277.727 352.81 278.324 351.309 278.324C349.807 278.324 348.367 277.727 347.305 276.664C346.243 275.601 345.647 274.159 345.647 272.656" fill="black"/>
<path opacity="0.2" d="M345.647 271.711C345.647 270.208 346.243 268.766 347.305 267.703C348.367 266.64 349.807 266.043 351.309 266.043C352.81 266.043 354.25 266.64 355.312 267.703C356.374 268.766 356.971 270.208 356.971 271.711" fill="black"/>
<path d="M348.478 270.294C348.738 270.294 348.949 269.977 348.949 269.585C348.949 269.194 348.738 268.877 348.478 268.877C348.217 268.877 348.006 269.194 348.006 269.585C348.006 269.977 348.217 270.294 348.478 270.294Z" fill="#FF6584"/>
<path d="M351.309 269.349C351.569 269.349 351.78 269.032 351.78 268.641C351.78 268.249 351.569 267.932 351.309 267.932C351.048 267.932 350.837 268.249 350.837 268.641C350.837 269.032 351.048 269.349 351.309 269.349Z" fill="#FF6584"/>
<path d="M351.309 275.49C351.569 275.49 351.78 275.172 351.78 274.781C351.78 274.39 351.569 274.073 351.309 274.073C351.048 274.073 350.837 274.39 350.837 274.781C350.837 275.172 351.048 275.49 351.309 275.49Z" fill="#FF6584"/>
<path d="M354.14 271.711C354.4 271.711 354.611 271.394 354.611 271.002C354.611 270.611 354.4 270.294 354.14 270.294C353.879 270.294 353.668 270.611 353.668 271.002C353.668 271.394 353.879 271.711 354.14 271.711Z" fill="#FF6584"/>
<path d="M353.668 276.907C353.928 276.907 354.14 276.59 354.14 276.198C354.14 275.807 353.928 275.49 353.668 275.49C353.407 275.49 353.196 275.807 353.196 276.198C353.196 276.59 353.407 276.907 353.668 276.907Z" fill="#FF6584"/>
<path d="M348.006 274.545C348.266 274.545 348.478 274.228 348.478 273.837C348.478 273.445 348.266 273.128 348.006 273.128C347.745 273.128 347.534 273.445 347.534 273.837C347.534 274.228 347.745 274.545 348.006 274.545Z" fill="#FF6584"/>
<path d="M366.407 259.43C370.577 259.43 373.957 256.047 373.957 251.873C373.957 247.699 370.577 244.315 366.407 244.315C362.238 244.315 358.858 247.699 358.858 251.873C358.858 256.047 362.238 259.43 366.407 259.43Z" fill="#FF6584"/>
<path opacity="0.2" d="M372.069 252.345C372.069 253.848 371.473 255.29 370.411 256.353C369.349 257.416 367.909 258.013 366.407 258.013C364.906 258.013 363.465 257.416 362.404 256.353C361.342 255.29 360.745 253.848 360.745 252.345" fill="black"/>
<path opacity="0.2" d="M360.745 251.4C360.745 249.897 361.342 248.455 362.404 247.392C363.465 246.329 364.906 245.732 366.407 245.732C367.909 245.732 369.349 246.329 370.411 247.392C371.473 248.455 372.069 249.897 372.069 251.4" fill="black"/>
<path d="M363.576 249.983C363.837 249.983 364.048 249.666 364.048 249.275C364.048 248.883 363.837 248.566 363.576 248.566C363.316 248.566 363.104 248.883 363.104 249.275C363.104 249.666 363.316 249.983 363.576 249.983Z" fill="#FF6584"/>
<path d="M366.407 249.039C366.668 249.039 366.879 248.721 366.879 248.33C366.879 247.939 366.668 247.622 366.407 247.622C366.147 247.622 365.935 247.939 365.935 248.33C365.935 248.721 366.147 249.039 366.407 249.039Z" fill="#FF6584"/>
<path d="M366.407 255.179C366.668 255.179 366.879 254.862 366.879 254.471C366.879 254.079 366.668 253.762 366.407 253.762C366.147 253.762 365.935 254.079 365.935 254.471C365.935 254.862 366.147 255.179 366.407 255.179Z" fill="#FF6584"/>
<path d="M369.238 251.4C369.499 251.4 369.71 251.083 369.71 250.692C369.71 250.3 369.499 249.983 369.238 249.983C368.978 249.983 368.766 250.3 368.766 250.692C368.766 251.083 368.978 251.4 369.238 251.4Z" fill="#FF6584"/>
<path d="M368.766 256.596C369.027 256.596 369.238 256.279 369.238 255.888C369.238 255.496 369.027 255.179 368.766 255.179C368.506 255.179 368.295 255.496 368.295 255.888C368.295 256.279 368.506 256.596 368.766 256.596Z" fill="#FF6584"/>
<path d="M363.104 254.234C363.365 254.234 363.576 253.917 363.576 253.526C363.576 253.135 363.365 252.817 363.104 252.817C362.844 252.817 362.633 253.135 362.633 253.526C362.633 253.917 362.844 254.234 363.104 254.234Z" fill="#FF6584"/>
<path d="M381.506 269.822C385.675 269.822 389.055 266.438 389.055 262.264C389.055 258.09 385.675 254.707 381.506 254.707C377.337 254.707 373.957 258.09 373.957 262.264C373.957 266.438 377.337 269.822 381.506 269.822Z" fill="#FFB830"/>
<path opacity="0.2" d="M387.168 262.736C387.168 264.24 386.571 265.681 385.51 266.744C384.448 267.807 383.008 268.405 381.506 268.405C380.004 268.405 378.564 267.807 377.502 266.744C376.44 265.681 375.844 264.24 375.844 262.736" fill="black"/>
<path opacity="0.2" d="M375.844 261.792C375.844 260.289 376.44 258.847 377.502 257.784C378.564 256.721 380.004 256.124 381.506 256.124C383.008 256.124 384.448 256.721 385.51 257.784C386.571 258.847 387.168 260.289 387.168 261.792" fill="black"/>
<path d="M378.675 260.375C378.936 260.375 379.147 260.058 379.147 259.666C379.147 259.275 378.936 258.958 378.675 258.958C378.414 258.958 378.203 259.275 378.203 259.666C378.203 260.058 378.414 260.375 378.675 260.375Z" fill="#FFB830"/>
<path d="M381.506 259.43C381.767 259.43 381.978 259.113 381.978 258.722C381.978 258.33 381.767 258.013 381.506 258.013C381.245 258.013 381.034 258.33 381.034 258.722C381.034 259.113 381.245 259.43 381.506 259.43Z" fill="#FFB830"/>
<path d="M381.506 265.571C381.767 265.571 381.978 265.253 381.978 264.862C381.978 264.471 381.767 264.154 381.506 264.154C381.245 264.154 381.034 264.471 381.034 264.862C381.034 265.253 381.245 265.571 381.506 265.571Z" fill="#FFB830"/>
<path d="M384.337 261.792C384.598 261.792 384.809 261.475 384.809 261.083C384.809 260.692 384.598 260.375 384.337 260.375C384.076 260.375 383.865 260.692 383.865 261.083C383.865 261.475 384.076 261.792 384.337 261.792Z" fill="#FFB830"/>
<path d="M383.865 266.988C384.126 266.988 384.337 266.67 384.337 266.279C384.337 265.888 384.126 265.571 383.865 265.571C383.605 265.571 383.393 265.888 383.393 266.279C383.393 266.67 383.605 266.988 383.865 266.988Z" fill="#FFB830"/>
<path d="M378.203 264.626C378.464 264.626 378.675 264.309 378.675 263.917C378.675 263.526 378.464 263.209 378.203 263.209C377.943 263.209 377.731 263.526 377.731 263.917C377.731 264.309 377.943 264.626 378.203 264.626Z" fill="#FFB830"/>
<path d="M343.759 270.766C347.929 270.766 351.309 267.383 351.309 263.209C351.309 259.035 347.929 255.651 343.759 255.651C339.59 255.651 336.21 259.035 336.21 263.209C336.21 267.383 339.59 270.766 343.759 270.766Z" fill="#FFB830"/>
<path opacity="0.2" d="M349.421 263.681C349.421 265.184 348.825 266.626 347.763 267.689C346.701 268.752 345.261 269.349 343.759 269.349C342.258 269.349 340.817 268.752 339.756 267.689C338.694 266.626 338.097 265.184 338.097 263.681" fill="black"/>
<path opacity="0.2" d="M338.097 262.736C338.097 261.233 338.694 259.792 339.756 258.729C340.817 257.666 342.258 257.068 343.759 257.068C345.261 257.068 346.701 257.666 347.763 258.729C348.825 259.792 349.421 261.233 349.421 262.736" fill="black"/>
<path d="M340.928 261.319C341.189 261.319 341.4 261.002 341.4 260.611C341.4 260.22 341.189 259.902 340.928 259.902C340.668 259.902 340.456 260.22 340.456 260.611C340.456 261.002 340.668 261.319 340.928 261.319Z" fill="#FFB830"/>
<path d="M343.759 260.375C344.02 260.375 344.231 260.058 344.231 259.666C344.231 259.275 344.02 258.958 343.759 258.958C343.499 258.958 343.287 259.275 343.287 259.666C343.287 260.058 343.499 260.375 343.759 260.375Z" fill="#FFB830"/>
<path d="M343.759 266.515C344.02 266.515 344.231 266.198 344.231 265.807C344.231 265.415 344.02 265.098 343.759 265.098C343.499 265.098 343.287 265.415 343.287 265.807C343.287 266.198 343.499 266.515 343.759 266.515Z" fill="#FFB830"/>
<path d="M346.59 262.736C346.851 262.736 347.062 262.419 347.062 262.028C347.062 261.637 346.851 261.319 346.59 261.319C346.33 261.319 346.118 261.637 346.118 262.028C346.118 262.419 346.33 262.736 346.59 262.736Z" fill="#FFB830"/>
<path d="M346.118 267.932C346.379 267.932 346.59 267.615 346.59 267.224C346.59 266.832 346.379 266.515 346.118 266.515C345.858 266.515 345.647 266.832 345.647 267.224C345.647 267.615 345.858 267.932 346.118 267.932Z" fill="#FFB830"/>
<path d="M340.456 265.571C340.717 265.571 340.928 265.253 340.928 264.862C340.928 264.471 340.717 264.154 340.456 264.154C340.196 264.154 339.985 264.471 339.985 264.862C339.985 265.253 340.196 265.571 340.456 265.571Z" fill="#FFB830"/>
<path d="M360.745 274.073C364.915 274.073 368.295 270.689 368.295 266.515C368.295 262.341 364.915 258.958 360.745 258.958C356.576 258.958 353.196 262.341 353.196 266.515C353.196 270.689 356.576 274.073 360.745 274.073Z" fill="#FFB830"/>
<path opacity="0.2" d="M366.407 266.988C366.407 267.732 366.261 268.469 365.976 269.157C365.692 269.844 365.275 270.469 364.749 270.996C364.223 271.522 363.599 271.939 362.912 272.224C362.225 272.509 361.489 272.656 360.745 272.656C360.002 272.656 359.265 272.509 358.579 272.224C357.892 271.939 357.267 271.522 356.742 270.996C356.216 270.469 355.799 269.844 355.514 269.157C355.23 268.469 355.083 267.732 355.083 266.988" fill="black"/>
<path opacity="0.2" d="M355.083 266.043C355.083 265.299 355.23 264.561 355.514 263.874C355.799 263.186 356.216 262.561 356.742 262.035C357.267 261.509 357.892 261.091 358.579 260.806C359.265 260.521 360.002 260.375 360.745 260.375C361.489 260.375 362.225 260.521 362.912 260.806C363.599 261.091 364.223 261.509 364.749 262.035C365.275 262.561 365.692 263.186 365.976 263.874C366.261 264.561 366.407 265.299 366.407 266.043" fill="black"/>
<path d="M357.914 264.626C358.175 264.626 358.386 264.309 358.386 263.917C358.386 263.526 358.175 263.209 357.914 263.209C357.654 263.209 357.442 263.526 357.442 263.917C357.442 264.309 357.654 264.626 357.914 264.626Z" fill="#FFB830"/>
<path d="M360.745 263.681C361.006 263.681 361.217 263.364 361.217 262.973C361.217 262.581 361.006 262.264 360.745 262.264C360.485 262.264 360.273 262.581 360.273 262.973C360.273 263.364 360.485 263.681 360.745 263.681Z" fill="#FFB830"/>
<path d="M360.745 269.822C361.006 269.822 361.217 269.504 361.217 269.113C361.217 268.722 361.006 268.405 360.745 268.405C360.485 268.405 360.273 268.722 360.273 269.113C360.273 269.504 360.485 269.822 360.745 269.822Z" fill="#FFB830"/>
<path d="M363.576 266.043C363.837 266.043 364.048 265.726 364.048 265.334C364.048 264.943 363.837 264.626 363.576 264.626C363.316 264.626 363.104 264.943 363.104 265.334C363.104 265.726 363.316 266.043 363.576 266.043Z" fill="#FFB830"/>
<path d="M363.104 271.239C363.365 271.239 363.576 270.921 363.576 270.53C363.576 270.139 363.365 269.822 363.104 269.822C362.844 269.822 362.633 270.139 362.633 270.53C362.633 270.921 362.844 271.239 363.104 271.239Z" fill="#FFB830"/>
<path d="M357.442 268.877C357.703 268.877 357.914 268.56 357.914 268.168C357.914 267.777 357.703 267.46 357.442 267.46C357.182 267.46 356.971 267.777 356.971 268.168C356.971 268.56 357.182 268.877 357.442 268.877Z" fill="#FFB830"/>
<path d="M372.541 282.102C376.711 282.102 380.09 278.719 380.09 274.545C380.09 270.371 376.711 266.988 372.541 266.988C368.372 266.988 364.992 270.371 364.992 274.545C364.992 278.719 368.372 282.102 372.541 282.102Z" fill="#FF6584"/>
<path opacity="0.2" d="M378.203 275.017C378.203 276.521 377.607 277.962 376.545 279.025C375.483 280.088 374.043 280.685 372.541 280.685C371.039 280.685 369.599 280.088 368.537 279.025C367.476 277.962 366.879 276.521 366.879 275.017" fill="black"/>
<path opacity="0.2" d="M366.879 274.073C366.879 272.569 367.476 271.128 368.537 270.065C369.599 269.002 371.039 268.405 372.541 268.405C374.043 268.405 375.483 269.002 376.545 270.065C377.607 271.128 378.203 272.569 378.203 274.073" fill="black"/>
<path d="M369.71 272.656C369.971 272.656 370.182 272.338 370.182 271.947C370.182 271.556 369.971 271.239 369.71 271.239C369.45 271.239 369.238 271.556 369.238 271.947C369.238 272.338 369.45 272.656 369.71 272.656Z" fill="#FF6584"/>
<path d="M372.541 271.711C372.802 271.711 373.013 271.394 373.013 271.002C373.013 270.611 372.802 270.294 372.541 270.294C372.281 270.294 372.069 270.611 372.069 271.002C372.069 271.394 372.281 271.711 372.541 271.711Z" fill="#FF6584"/>
<path d="M372.541 277.851C372.802 277.851 373.013 277.534 373.013 277.143C373.013 276.752 372.802 276.434 372.541 276.434C372.281 276.434 372.069 276.752 372.069 277.143C372.069 277.534 372.281 277.851 372.541 277.851Z" fill="#FF6584"/>
<path d="M375.372 274.073C375.633 274.073 375.844 273.755 375.844 273.364C375.844 272.973 375.633 272.656 375.372 272.656C375.112 272.656 374.9 272.973 374.9 273.364C374.9 273.755 375.112 274.073 375.372 274.073Z" fill="#FF6584"/>
<path d="M374.9 279.268C375.161 279.268 375.372 278.951 375.372 278.56C375.372 278.169 375.161 277.851 374.9 277.851C374.64 277.851 374.428 278.169 374.428 278.56C374.428 278.951 374.64 279.268 374.9 279.268Z" fill="#FF6584"/>
<path d="M369.238 276.907C369.499 276.907 369.71 276.59 369.71 276.198C369.71 275.807 369.499 275.49 369.238 275.49C368.978 275.49 368.766 275.807 368.766 276.198C368.766 276.59 368.978 276.907 369.238 276.907Z" fill="#FF6584"/>
<path d="M275.457 247.735C276.562 247.735 277.458 246.839 277.458 245.732C277.458 244.626 276.562 243.729 275.457 243.729C274.352 243.729 273.456 244.626 273.456 245.732C273.456 246.839 274.352 247.735 275.457 247.735Z" fill="#3F3D56"/>
<path d="M329.849 318.443L281.791 305.101L283.632 298.255L331.69 311.598L329.849 318.443Z" fill="#F9A825"/>
<path d="M322.804 316.155C306.347 319.309 289.441 319.309 272.984 316.155V309.059C289.478 311.796 306.31 311.796 322.804 309.059V316.155Z" fill="#F9A825"/>
<path d="M327.926 294.867C311.468 298.021 294.563 298.021 278.106 294.867V287.771C294.6 290.507 311.431 290.507 327.926 287.771V294.867Z" fill="#F9A825"/>
<path d="M345.153 303.382C328.696 306.536 311.79 306.536 295.333 303.382V296.286C311.827 299.023 328.659 299.023 345.153 296.286V303.382Z" fill="#F9A825"/>
<path d="M349.343 311.424C332.886 314.578 315.981 314.578 299.524 311.424V304.328C316.018 307.065 332.849 307.065 349.343 304.328V311.424Z" fill="#F9A825"/>
<path d="M363.953 321.933L314.801 330.198L313.661 323.197L362.812 314.932L363.953 321.933Z" fill="#F9A825"/>
<path d="M356.611 322.843C342.984 332.676 327.625 339.847 311.342 343.979L308.426 337.531C324.567 333.007 339.859 325.867 353.695 316.395L356.611 322.843Z" fill="#F9A825"/>
<path d="M352.516 301.326C338.889 311.16 323.531 318.331 307.247 322.463L304.331 316.015C320.472 311.49 335.764 304.35 349.6 294.878L352.516 301.326Z" fill="#F9A825"/>
<path d="M371.669 301.755C358.042 311.589 342.684 318.759 326.4 322.891L323.484 316.443C339.625 311.919 354.917 304.779 368.753 295.307L371.669 301.755Z" fill="#F9A825"/>
<path d="M378.782 307.285C365.155 317.118 349.797 324.289 333.513 328.421L330.597 321.973C346.738 317.449 362.03 310.309 375.866 300.837L378.782 307.285Z" fill="#F9A825"/>
<path d="M319.224 293.439H316.865V295.8H319.224V293.439Z" fill="#00BF71"/>
<path d="M326.301 334.532H323.942V336.894H326.301V334.532Z" fill="#00BF71"/>
<path d="M288.555 293.439H286.196V295.8H288.555V293.439Z" fill="#00BF71"/>
<path d="M343.287 322.724H340.928V325.086H343.287V322.724Z" fill="#00BF71"/>
<path d="M344.703 309.026H342.344V311.388H344.703V309.026Z" fill="#00BF71"/>
<path d="M305.786 302.56L303.052 300.703L301.993 302.267L304.726 304.123L305.786 302.56Z" fill="#00BF71"/>
<path d="M333.624 307.755L330.891 305.899L329.831 307.462L332.564 309.319L333.624 307.755Z" fill="#00BF71"/>
<path d="M299.652 316.73L296.919 314.873L295.859 316.437L298.592 318.293L299.652 316.73Z" fill="#00BF71"/>
<path d="M316.954 316.592L318.809 313.856L317.247 312.796L315.393 315.532L316.954 316.592Z" fill="#00BF71"/>
<path d="M329.694 319.899L331.548 317.163L329.986 316.102L328.132 318.838L329.694 319.899Z" fill="#00BF71"/>
<path d="M363.669 308.562L365.523 305.826L363.962 304.765L362.107 307.501L363.669 308.562Z" fill="#00BF71"/>
<path d="M587 389.638H48V391H587V389.638Z" fill="#3F3D56"/>
<path d="M7.59149 108.931L22.3579 130.552L24.8071 128.879L13.5881 112.453L13.7992 112.308L31.7746 124.12L34.1393 122.505L29.6767 101.464L29.8878 101.32L41.1068 117.747L43.556 116.074L28.7896 94.4535L25.6648 96.5877L30.5745 119.553L30.3211 119.726L10.7163 106.797L7.59149 108.931Z" fill="black"/>
<path d="M60.7512 106.07C64.1797 104.031 65.6661 100.828 64.9417 97.8079L62.0182 98.594C62.4041 100.744 61.3992 102.531 59.3662 103.74C56.3223 105.549 53.0541 104.83 50.7839 101.287L63.0366 94.0028L62.3834 92.9039C58.6467 86.6182 53.6301 86.6854 50.1136 88.7759C45.5422 91.4935 44.6519 96.9009 47.7353 102.088C50.8187 107.274 55.8721 108.97 60.7512 106.07ZM49.4513 99.0449C48.0658 96.314 48.5315 92.8694 51.4985 91.1055C54.3117 89.4332 57.3681 90.4717 59.0666 93.3288L49.4513 99.0449Z" fill="black"/>
<path d="M81.0895 94.6873C84.1201 93.0892 84.8446 90.626 84.7911 89.209L84.9268 89.1374L86.1671 91.4895L88.8358 90.0822L82.8012 78.6384C79.8912 73.12 75.3507 74.705 73.1343 75.8737C70.5108 77.2571 68.0024 79.736 68.3151 83.6179L71.3252 83.1868C71.2454 81.6102 71.9207 79.5198 74.465 78.1781C76.9189 76.8841 78.8146 77.5465 79.9894 79.7742L80.0371 79.8647C80.7169 81.1538 79.3455 81.7325 76.3939 83.8092C73.3917 85.9271 70.2505 88.494 72.3495 92.4745C74.1384 95.8669 77.7875 96.4285 81.0895 94.6873ZM80.2325 92.0753C78.1065 93.1964 76.0677 93.0575 75.0898 91.2029C74.0164 89.1674 75.537 87.5562 77.4746 86.1876C78.5339 85.4556 81.3975 83.5409 81.5636 82.7596L82.8516 85.2022C83.9965 87.3733 83.3987 90.4057 80.2325 92.0753Z" fill="black"/>
<path d="M90.1913 60.2886L87.4693 61.59L98.7625 85.211L101.484 83.9096L90.1913 60.2886Z" fill="black"/>
<path d="M118.004 59.8192C116.028 57.6377 113.339 56.7681 109.773 58.3125C105.972 59.9584 104.091 63.3361 105.412 66.3863C106.489 68.8734 108.688 69.8992 112.332 69.2409L115.64 68.6443C117.641 68.2793 118.873 68.7765 119.412 70.0201C120.082 71.5686 118.989 73.5468 116.408 74.6644C114.143 75.6448 112.302 75.2858 110.971 73.5635L108.628 75.3584C110.599 78.1409 113.827 78.6793 117.511 77.0842C121.699 75.2707 123.559 71.7486 122.213 68.6398C121.126 66.1293 118.868 65.2262 115.314 65.8321L112.354 66.3334C109.991 66.73 108.719 66.431 108.119 65.0467C107.449 63.4981 108.603 61.6607 110.809 60.7057C113.226 59.6592 114.802 60.5648 115.821 61.6L118.004 59.8192Z" fill="black"/>
<path d="M148.117 64.5376L150.967 63.5458L146.882 51.8103C146.008 49.299 147.349 46.7746 150.053 45.8332C150.814 45.5684 151.649 45.4401 151.859 45.4212L150.851 42.5235C150.516 42.6128 149.759 42.8492 149.337 42.9963C147.115 43.7696 145.62 45.6977 145.583 47.7682L145.39 47.8355L144.415 45.0344L141.662 45.9926L148.117 64.5376Z" fill="black"/>
<path d="M173.941 56.5268C177.762 55.3833 179.983 52.637 180.014 49.5317L176.987 49.5835C176.839 51.763 175.43 53.2523 173.164 53.9303C169.771 54.9455 166.776 53.4532 165.435 49.4641L179.091 45.3776L178.725 44.1529C176.628 37.1473 171.746 35.9929 167.827 37.1657C162.732 38.6904 160.554 43.7191 162.283 49.4999C164.013 55.2807 168.503 58.154 173.941 56.5268ZM164.688 46.9656C164.008 43.9799 165.297 40.7518 168.604 39.7622C171.739 38.824 174.451 40.5744 175.404 43.7587L164.688 46.9656Z" fill="black"/>
<path d="M198.56 49.859C202.782 48.8272 204.933 45.5643 204.604 42.065L201.673 42.7812C201.637 45.0011 200.202 46.6679 197.917 47.2263C194.439 48.0761 191.5 45.7412 190.419 41.3202C189.363 36.9985 190.956 33.6086 194.384 32.771C196.967 32.1397 198.895 33.353 199.767 34.9824L202.698 34.2661C201.327 30.8109 197.714 29.1671 193.691 30.1504C188.525 31.4129 186.093 36.3239 187.513 42.1358C188.909 47.8483 193.195 51.1701 198.56 49.859Z" fill="black"/>
<path d="M223.731 44.397C228.956 43.405 231.719 38.7685 230.584 32.7901C229.44 26.7614 225.17 23.4602 219.945 24.4522C214.72 25.4441 211.957 30.0807 213.101 36.1093C214.236 42.0878 218.507 45.389 223.731 44.397ZM223.226 41.7344C219.257 42.4879 216.8 39.415 216.065 35.5466C215.331 31.6782 216.481 27.8683 220.45 27.1148C224.419 26.3613 226.886 29.4844 227.62 33.3528C228.355 37.2212 227.195 40.9808 223.226 41.7344Z" fill="black"/>
<path d="M242.121 40.6579L245.114 40.2825L243.587 28.1051C243.229 25.251 245.057 22.9733 247.391 22.6806C249.661 22.3959 251.433 23.6811 251.711 25.901L253.385 39.2453L256.429 38.8635L254.838 26.1788C254.523 23.6672 255.864 21.618 258.604 21.2744C260.735 21.0071 262.703 21.907 263.064 24.7864L264.699 37.8264L267.693 37.4509L266.058 24.411C265.484 19.8318 262.757 18.0221 259.281 18.458C256.491 18.8079 254.609 20.3452 253.86 22.4877L253.657 22.5132C252.432 20.5538 250.58 19.5492 248.017 19.8705C245.48 20.1887 243.756 21.6418 243.205 23.824L242.951 23.8558L242.569 20.8114L239.677 21.1741L242.121 40.6579Z" fill="black"/>
<path d="M286.873 36.4619C290.854 36.2113 293.638 34.0378 294.37 31.0199L291.41 30.3865C290.772 32.4761 289.063 33.6085 286.703 33.757C283.169 33.9795 280.588 31.8491 280.183 27.6603L294.409 26.7647L294.329 25.4888C293.87 18.1908 289.374 15.9631 285.291 16.2202C279.984 16.5543 276.726 20.9609 277.105 26.983C277.484 33.0052 281.208 36.8185 286.873 36.4619ZM280.02 25.0575C280.032 21.9953 282.017 19.1419 285.462 18.925C288.728 18.7194 290.975 21.0374 291.184 24.3547L280.02 25.0575Z" fill="black"/>
<path d="M307.266 23.3614C307.229 19.9355 309.33 17.9695 312.219 17.9383C315.018 17.908 316.738 19.7177 316.772 22.7985L316.904 35.0705L319.921 35.0379L319.786 22.5613C319.732 17.5502 317.034 15.1758 313.059 15.2188C310.093 15.2509 308.267 16.6002 307.368 18.6044L307.112 18.6071L307.079 15.5391L304.164 15.5706L304.377 35.2058L307.393 35.1732L307.266 23.3614Z" fill="black"/>
<path d="M338.541 35.9104C342.321 36.0739 343.7 33.779 344.41 32.7349L344.768 32.7504L344.638 35.7646L347.55 35.8905L348.681 9.73317L345.667 9.60281L345.249 19.2586L344.994 19.2475C344.374 18.197 343.3 15.7961 339.469 15.6304C334.513 15.4161 330.92 19.2019 330.653 25.3836C330.383 31.6164 333.636 35.6983 338.541 35.9104ZM339.066 33.2203C335.286 33.0568 333.488 29.6521 333.669 25.4629C333.848 21.3247 335.878 18.1878 339.709 18.3536C343.388 18.5126 345.201 21.5597 345.011 25.9534C344.819 30.3981 342.694 33.3772 339.066 33.2203Z" fill="black"/>
<path d="M364.594 37.6943C368.005 38.0236 369.963 36.3633 370.697 35.1498L370.85 35.1645L370.594 37.8113L373.597 38.1013L374.841 25.2237C375.44 19.0139 370.775 17.8442 368.281 17.6034C365.329 17.3183 361.871 18.0119 360 21.4274L362.752 22.7207C363.552 21.3594 365.264 19.9835 368.127 20.26C370.889 20.5266 372.109 22.1215 371.867 24.6283L371.857 24.7301C371.717 26.1807 370.253 25.9109 366.646 26.025C362.974 26.1456 358.939 26.5651 358.507 31.0443C358.138 34.8617 360.879 37.3355 364.594 37.6943ZM365.313 35.0409C362.921 34.8099 361.293 33.5739 361.495 31.487C361.716 29.1965 363.872 28.6854 366.243 28.6061C367.53 28.5763 370.975 28.5493 371.543 27.9877L371.277 30.7362C371.041 33.1794 368.876 35.3849 365.313 35.0409Z" fill="black"/>
<path d="M395.754 21.2188L391.602 20.6317L392.261 15.9735L389.274 15.5511L388.615 20.2093L385.678 19.7941L385.32 22.3257L388.257 22.7409L386.539 34.8928C386.059 38.2852 388.564 40.292 391.096 40.65C392.21 40.8075 392.947 40.7052 393.374 40.6106L393.146 37.8412C392.885 37.856 392.466 37.9 391.808 37.8069C390.491 37.6208 389.283 37.0367 389.641 34.5051L391.244 23.1634L395.396 23.7505L395.754 21.2188Z" fill="black"/>
<path d="M403.196 42.3138L406.168 42.8328L409.546 23.4892L406.574 22.9701L403.196 42.3138ZM408.648 20.0101C409.807 20.2124 410.922 19.4729 411.116 18.3646C411.31 17.2564 410.511 16.1825 409.352 15.9802C408.194 15.7779 407.078 16.5175 406.885 17.6257C406.691 18.7339 407.49 19.8078 408.648 20.0101Z" fill="black"/>
<path d="M424.519 46.8573C429.717 47.9824 434.07 44.7913 435.357 38.8438C436.655 32.8463 434.011 28.1407 428.814 27.0156C423.616 25.8906 419.263 29.0816 417.964 35.0791C416.677 41.0266 419.321 45.7322 424.519 46.8573ZM425.092 44.2084C421.144 43.3538 420.08 39.5658 420.913 35.7174C421.746 31.869 424.292 28.8099 428.24 29.6645C432.189 30.5191 433.241 34.3571 432.408 38.2055C431.575 42.0539 429.041 45.063 425.092 44.2084Z" fill="black"/>
<path d="M448.939 40.0987C449.841 36.7932 452.399 35.4768 455.187 36.2369C457.888 36.9734 459.047 39.1844 458.237 42.1569L455.008 53.9973L457.919 54.791L461.201 42.7533C462.52 37.9184 460.574 34.8968 456.738 33.8508C453.877 33.0706 451.751 33.869 450.339 35.5509L450.092 35.4836L450.899 32.5235L448.087 31.7567L442.921 50.7014L445.832 51.4951L448.939 40.0987Z" fill="black"/>
<path d="M498.591 47.4744L494.447 46.0002L495.116 44.1213C495.767 42.2905 496.881 41.6012 498.76 42.2698C499.579 42.5612 499.992 42.9253 500.247 43.1246L501.94 40.9589C501.575 40.6119 500.811 40.0143 499.414 39.5172C496.764 38.5744 493.645 39.2557 492.514 42.4354L491.605 44.9888L488.618 43.926L487.761 46.3348L490.748 47.3977L485.022 63.4889L487.865 64.5003L493.59 48.4091L497.734 49.8833L498.591 47.4744Z" fill="black"/>
<path d="M507.747 72.5197C512.674 74.5222 517.511 72.1275 519.802 66.4901C522.113 60.8054 520.318 55.7151 515.391 53.7127C510.464 51.7102 505.627 54.1048 503.316 59.7896C501.025 65.4269 502.82 70.5172 507.747 72.5197ZM508.767 70.0089C505.025 68.4878 504.629 64.5733 506.111 60.9256C507.594 57.2779 510.628 54.7023 514.37 56.2234C518.113 57.7445 518.49 61.7064 517.007 65.3541C515.525 69.0018 512.51 71.53 508.767 70.0089Z" fill="black"/>
<path d="M525.223 79.5306L527.964 80.7917L533.158 69.5032C534.269 67.0875 536.986 66.1986 539.587 67.3956C540.319 67.7322 541.01 68.2189 541.174 68.3509L542.457 65.5636C542.154 65.3961 541.445 65.0416 541.038 64.8545C538.901 63.8713 536.487 64.2241 535.025 65.6902L534.839 65.6047L536.079 62.9103L533.431 61.6919L525.223 79.5306Z" fill="black"/>
<path d="M554.482 102.183C556.863 103.505 559.241 103.173 561.719 101.054L579.926 85.4861L577.067 83.8403L564.732 94.8892L564.553 94.7899L567.411 78.4783L564.549 76.8895L561.316 97.6714L560.079 98.7395C557.666 100.821 556.344 100.409 554.695 98.85L552.734 100.802C552.927 101.085 553.588 101.686 554.482 102.183Z" fill="black"/>
<path d="M585.32 112.117C589.828 114.937 595.005 113.41 598.232 108.251C601.486 103.049 600.594 97.7255 596.085 94.9054C591.576 92.0852 586.399 93.612 583.145 98.8145C579.918 103.974 580.811 109.297 585.32 112.117ZM586.757 109.819C583.332 107.677 583.615 103.753 585.703 100.414C587.791 97.0762 591.223 95.0609 594.648 97.2032C598.073 99.3454 597.762 103.313 595.674 106.651C593.586 109.99 590.182 111.962 586.757 109.819Z" fill="black"/>
<path d="M616.07 122.503C613.958 125.519 610.686 125.287 608.844 123.997C606.791 122.559 606.381 120.024 608.024 117.679L615.065 107.627L612.594 105.896L605.436 116.116C602.561 120.22 603.36 123.714 606.376 125.827C608.805 127.528 611.306 127.344 613.204 126.239L613.371 126.356L611.465 129.079L613.936 130.81L625.201 114.726L622.73 112.995L616.07 122.503Z" fill="black"/>
</svg>
